<?xml version="1.0" encoding="UTF-8"?>
<svg width="24px" height="21px" viewBox="0 0 24 21" version="1.1" xmlns="http://www.w3.org/2000/svg" xmlns:xlink="http://www.w3.org/1999/xlink">
    <!-- Generator: Sketch 54.1 (76490) - https://sketchapp.com -->
    <title>Icon / HandRoast / Gold</title>
    <desc>Created with Sketch.</desc>
    <g id="Final" stroke="none" stroke-width="1" fill="none" fill-rule="evenodd">
        <g id="PDP-Coffee-Full" transform="translate(-998.000000, -795.000000)">
            <g id="Group-11" transform="translate(103.000000, 790.000000)">
                <g id="Group-23">
                    <g id="Icon-/-Shipped-/-Gold" transform="translate(895.000000, 1.000000)">
                        <g id="Group-14" transform="translate(0.000000, 4.000000)">
                            <path d="M17.1083171,15.6538462 L16.5384615,15.6538462 L9.73783677,15.6538462 C10.1181349,16.1206091 10.3461538,16.7163685 10.3461538,17.3653846 C10.3461538,18.862926 9.13215673,20.0769231 7.63461538,20.0769231 C6.13707404,20.0769231 4.92307692,18.862926 4.92307692,17.3653846 C4.92307692,16.7163685 5.15109589,16.1206091 5.531394,15.6538462 L1.5,15.6538462 C0.94771525,15.6538462 0.5,15.2061309 0.5,14.6538462 L0.5,1.5 C0.5,0.94771525 0.94771525,0.5 1.5,0.5 L15.5384615,0.5 C16.0907463,0.5 16.5384615,0.94771525 16.5384615,1.5 L16.5384615,14.6538462 L22.5384615,14.6538462 L22.5384615,9.84615385 C22.5384615,7.26270127 20.5007622,5.15517889 17.9449227,5.04314587 L17.7307692,5.03846154 L17.4384615,5.03846154 L17.4384615,4.03846154 L17.7307692,4.03846154 C20.8636761,4.03846154 23.4171939,6.51912104 23.5342678,9.6233852 L23.5384615,9.84615385 L23.5384615,14.6538462 C23.5384615,15.166682 23.1524213,15.5893533 22.6550827,15.6471184 L22.5384615,15.6538462 L21.3147599,15.6538462 C21.695058,16.1206091 21.9230769,16.7163685 21.9230769,17.3653846 C21.9230769,18.862926 20.7090798,20.0769231 19.2115385,20.0769231 C17.7139971,20.0769231 16.5,18.862926 16.5,17.3653846 C16.5,16.7163685 16.728019,16.1206091 17.1083171,15.6538462 Z M15.5384615,1.5 L1.5,1.5 L1.5,14.6538462 L15.538,14.653 L15.5384615,1.5 Z M7.63461538,15.6538462 C6.68935879,15.6538462 5.92307692,16.420128 5.92307692,17.3653846 C5.92307692,18.3106412 6.68935879,19.0769231 7.63461538,19.0769231 C8.57987198,19.0769231 9.34615385,18.3106412 9.34615385,17.3653846 C9.34615385,16.420128 8.57987198,15.6538462 7.63461538,15.6538462 Z M19.2115385,15.6538462 C18.2662819,15.6538462 17.5,16.420128 17.5,17.3653846 C17.5,18.3106412 18.2662819,19.0769231 19.2115385,19.0769231 C20.1567951,19.0769231 20.9230769,18.3106412 20.9230769,17.3653846 C20.9230769,16.420128 20.1567951,15.6538462 19.2115385,15.6538462 Z" id="Combined-Shape" fill="#B9975B" fill-rule="nonzero"></path>
                            <rect id="Rectangle" stroke="#B9975B" x="5.42307692" y="15.1538462" width="4.42307692" height="4.42307692" rx="2.21153846"></rect>
                        </g>
                    </g>
                </g>
            </g>
        </g>
    </g>
</svg>