<?xml version="1.0" encoding="UTF-8"?>
<svg width="14px" height="23px" viewBox="0 0 14 23" version="1.1" xmlns="http://www.w3.org/2000/svg" xmlns:xlink="http://www.w3.org/1999/xlink">
    <!-- Generator: Sketch 54.1 (76490) - https://sketchapp.com -->
    <title>Icon / HandRoast / Gold</title>
    <desc>Created with Sketch.</desc>
    <g id="Final" stroke="none" stroke-width="1" fill="none" fill-rule="evenodd">
        <g id="PDP-Coffee-Full" transform="translate(-633.000000, -791.000000)" fill="#B9975B" fill-rule="nonzero">
            <g id="Group-11" transform="translate(103.000000, 790.000000)">
                <g id="Group-23">
                    <g id="Icon-/-Sealed-/-Gold" transform="translate(525.000000, 0.500000)">
                        <path d="M16.8480723,3.74869116 C16.4350864,4.6036413 16.211757,6.04586716 16.211757,8.06026524 L16.211757,22.5 L17.811946,22.5 L17.811946,8.97209125 C17.811946,6.74376543 17.4861584,5.00269198 16.8480723,3.74869116 Z M15.211757,23.5 L6,23.5 C5.44771525,23.5 5,23.0522847 5,22.5 L5,8.06026524 C5,6.26345801 5.66483656,4.42713511 6.97964645,2.5559497 L6.888,2.688 L6.88875024,1.5 C6.88875024,0.987164161 7.27479043,0.564492839 7.77212911,0.506727731 L7.88875024,0.5 L16.3581706,0.5 C16.9104554,0.5 17.3581706,0.94771525 17.3581706,1.5 L17.3581706,2.64012385 L17.4157481,2.72974832 C18.3037719,4.11203693 18.7623216,6.05238274 18.80813,8.55056281 L18.811946,8.97209125 L18.811946,22.5 C18.811946,23.0128358 18.4259058,23.4355072 17.9285671,23.4932723 L17.811946,23.5 L15.211757,23.5 Z M15.211757,22.5 L15.211757,8.06026524 C15.211757,6.05404533 15.4207443,4.53776127 15.8641641,3.5 L7.54718497,3.5 C6.51177005,5.07989353 6,6.59874256 6,8.06026524 L6,22.5 L14,22.5 L15.211757,22.5 Z M16.358023,2.5 L16.3581706,1.5 L7.88875024,1.5 L7.88875024,2.5 L16.358023,2.5 Z M13.5,14 C13.7761424,14 14,14.2238576 14,14.5 L14,18.5 C14,18.7761424 13.7761424,19 13.5,19 L7.5,19 C7.22385763,19 7,18.7761424 7,18.5 L7,14.5 C7,14.2238576 7.22385763,14 7.5,14 L13.5,14 Z M13,15 L8,15 L8,18 L13,18 L13,15 Z" id="Combined-Shape"></path>
                    </g>
                </g>
            </g>
        </g>
    </g>
</svg>