<?xml version="1.0" encoding="UTF-8"?>
<svg width="18px" height="25px" viewBox="0 0 18 25" version="1.1" xmlns="http://www.w3.org/2000/svg" xmlns:xlink="http://www.w3.org/1999/xlink">
    <!-- Generator: Sketch 54.1 (76490) - https://sketchapp.com -->
    <title>Icon / HandRoast / Gold</title>
    <desc>Created with Sketch.</desc>
    <g id="Final" stroke="none" stroke-width="1" fill="none" fill-rule="evenodd">
        <g id="PDP-Coffee-Full" transform="translate(-257.000000, -790.000000)">
            <g id="Group-11" transform="translate(103.000000, 790.000000)">
                <g id="Icon-/-HandRoast-/-Gold" transform="translate(151.500000, 0.500000)">
                    <g id="Group-3" transform="translate(3.000000, -0.000000)" fill="#B9975B">
                        <path d="M16.304546,18.6853444 C14.1629395,19.6311384 12.3972486,19.3832272 9.33992491,18.2170541 L8.9576939,18.0692014 C5.34995948,16.6589057 3.64765288,16.4974703 1.19047263,18.0545777 C1.56877393,20.6828606 4.85171286,22.8587348 8.86496388,22.9200909 C12.6770454,22.9783715 15.7603898,21.1108392 16.304546,18.6853444 Z M1.2200124,16.8723568 C3.65226313,15.5133389 5.58261356,15.7106785 8.98388986,17.0073428 L9.36507383,17.1547596 C12.6362413,18.4333715 14.2209508,18.6485096 16.3703008,17.5452548 C16.0867062,14.857098 12.7605561,12.6076285 8.67903612,12.5452287 C4.81869592,12.4862103 1.70566034,14.4020728 1.2200124,16.8723568 Z M17.3893899,17.8492624 C17.4414596,21.3201676 13.5834285,23.9923455 8.84967728,23.9199741 C4.1253913,23.8477474 0.20644419,21.0712617 0.154610053,17.6160572 C0.102540378,14.145152 3.96057147,11.4729741 8.69432272,11.5453455 C13.4186087,11.6175722 17.3375558,14.3940579 17.3893899,17.8492624 Z M10.2336815,0.458959164 C10.3944189,0.234419425 10.7067477,0.182697422 10.9312875,0.343434837 C11.1308784,0.486312539 11.1939219,0.748966185 11.0925765,0.963271176 L11.0468118,1.04104084 L8.72,4.291 L11.2406925,6.50878471 C11.4169441,6.6638 11.4586793,6.9163471 11.3532463,7.11670696 L11.2990135,7.19894384 L8.43853153,10.7303937 C8.26472124,10.9449738 7.94986867,10.9780242 7.73528863,10.8042139 C7.54455081,10.6497159 7.49724382,10.383777 7.61115846,10.1758805 L7.66146847,10.100971 L10.219,6.942 L7.71978949,4.74385424 C7.55106687,4.59546081 7.50470771,4.35634373 7.59589104,4.15899846 L7.64343484,4.07736565 L10.2336815,0.458959164 Z M14.3721936,1.03378097 C14.5329311,0.809241235 14.8452599,0.757519232 15.0697996,0.918256647 C15.2693905,1.06113435 15.332434,1.323788 15.2310886,1.53809299 L15.185324,1.61586265 L13.27,4.291 L15.7906925,6.50878471 C15.9669441,6.6638 16.0086793,6.9163471 15.9032463,7.11670696 L15.8490135,7.19894384 L13.7928537,9.73740607 C13.6190434,9.95198611 13.3041908,9.98503653 13.0896108,9.81122623 C12.8988729,9.6567282 12.851566,9.39078934 12.9654806,9.18289278 L13.0157906,9.10798333 L14.769,6.942 L12.2697895,4.74385424 C12.1010669,4.59546081 12.0547077,4.35634373 12.145891,4.15899846 L12.1934348,4.07736565 L14.3721936,1.03378097 Z M5.27219364,1.03378097 C5.43293105,0.809241235 5.7452599,0.757519232 5.96979964,0.918256647 C6.16939052,1.06113435 6.23243405,1.323788 6.13108861,1.53809299 L6.08532396,1.61586265 L4.17,4.291 L6.69069249,6.50878471 C6.86694412,6.6638 6.90867933,6.9163471 6.80324629,7.11670696 L6.74901351,7.19894384 L4.69285367,9.73740607 C4.51904338,9.95198611 4.2041908,9.98503653 3.98961076,9.81122623 C3.79887295,9.6567282 3.75156595,9.39078934 3.8654806,9.18289278 L3.9157906,9.10798333 L5.669,6.942 L3.16978949,4.74385424 C3.00106687,4.59546081 2.95470771,4.35634373 3.04589104,4.15899846 L3.09343484,4.07736565 L5.27219364,1.03378097 Z" id="Combined-Shape" fill-rule="nonzero"></path>
                    </g>
                    <g id="Group-2" transform="translate(6.500000, 0.750000)">
                        <g id="Group"></g>
                    </g>
                </g>
            </g>
        </g>
    </g>
</svg>